<svg xmlns="http://www.w3.org/2000/svg" height="1200" width="1600" version="1.1"
    xmlns:xlink="http://www.w3.org/1999/xlink" xmlns:svgjs="http://svgjs.com/svgjs">
    <rect fill="none" width="1600" height="1200"></rect>
    <g>
        <path
            d="M838.23 1013.48C841.1 1012.06 843.8 1010.37 846.33 1008.44L1122.41 795.76C1130.11 789.78 1135.66 781.72 1138.15 772.91 1140.64 764.09 1139.93 755.03 1136.13 747.19L926.01 322.4C922.45 315.15 916.41 309.35 908.74 305.83 901.07 302.32 892.17 301.26 883.3 302.81L531.99 363.64C527.47 364.47 523.05 365.93 518.89 367.97 508.61 373.06 500.55 381.57 496.47 391.63 492.4 401.68 492.63 412.46 497.14 421.59L782.34 998.19C783.58 1000.76 785.17 1003.14 787.06 1005.3 792.8 1011.95 800.99 1016.37 810.27 1017.85 819.56 1019.34 829.41 1017.8 838.23 1013.48H838.23Z"
            fill="#3c2c5b" opacity="1" stroke-width="4" stroke="none"></path>
    </g>
    <g>
        <path
            d="M831 882.58C987.96 882.58 1115.25 755.31 1115.25 598.32 1115.25 441.33 987.96 314.07 831 314.07 674 314.07 546.75 441.33 546.75 598.32 546.75 755.31 674 882.58 831 882.58Z"
            fill="#ffa0dc" opacity="1" stroke-width="4" stroke="none"></path>
    </g>
    <g>
        <path
            d="M934.25 691.89C934.42 651.17 908.7 614.81 870.35 601.37 868.57 600.74 867.66 598.74 868.29 596.97 868.59 595.97 869.42 595.19 870.36 594.87 908.85 581.61 934.65 545.36 934.74 504.61L934.89 422.88 743.55 422.36 743.36 504.18C743.31 544.85 768.95 581.17 807.26 594.7 809.04 595.32 809.95 597.33 809.41 599.14 809.11 600.13 808.28 600.91 807.33 601.24 768.85 614.5 743.04 650.74 742.91 691.38L742.72 773.19 934.06 773.71 934.25 691.89Z"
            fill="#ffc930" opacity="1" stroke-width="4" stroke="none"></path>
        <path
            d="M908.25 724.39L908.21 749.61 768.57 749.27 768.66 689.6C768.72 682.5 769.78 675.41 771.93 668.66L908.25 724.39Z"
            fill="#61ccff" stroke-linecap="round" stroke-linejoin="round" opacity="1"
            stroke-width="4" stroke="none"></path>
        <path d="M832.68 693.5L875.5 725.86 875.48 749.55 908.21 749.61 908.25 724.39 832.68 693.5Z"
            fill="#181818" opacity="0.2" stroke-width="4" stroke="none"></path>
        <path
            d="M838.84 576.18C800.23 576.06 769.1 544.71 769.19 506.19L771.49 467.93 906.86 523.28C899.05 554.31 870.98 576.2 838.84 576.18Z"
            fill="#61ccff" stroke-linecap="round" stroke-linejoin="round" opacity="1"
            stroke-width="4" stroke="none"></path>
        <path
            d="M906.84 523.31L877.99 511.52C870.2 542.51 842.13 564.4 809.99 564.38 806.23 564.37 802.49 564.06 798.86 563.49 810.15 571.47 823.89 576.17 838.84 576.18 870.98 576.2 899.05 554.31 906.84 523.31Z"
            fill="#181818" opacity="0.2" stroke-width="4" stroke="none"></path>
        <path d="M724.84 773.13L951.45 773.73" stroke="#000000" stroke-width="4"
            stroke-linecap="round" stroke-linejoin="round" opacity="1" fill="none"></path>
        <path d="M726.55 422.13L953.07 422.69" stroke="#000000" stroke-width="4"
            stroke-linecap="round" stroke-linejoin="round" opacity="1" fill="none"></path>
        <path
            d="M826.36 523.51C867.93 540.51 898.16 534.07 902.93 521.7L774.67 469.26C771.11 491.24 787.57 507.65 826.36 523.51Z"
            fill="#ffffff" stroke-linecap="round" opacity="1" stroke-width="4" stroke="none"></path>
        <path
            d="M829.1 725.4C868.67 741.58 908.25 724.39 906.66 723.79L775.44 670.14C771.81 669.22 788.66 708.86 829.1 725.4Z"
            fill="#ffffff" stroke-linecap="round" stroke-linejoin="round" opacity="1"
            stroke-width="4" stroke="none"></path>
    </g>
    <g>
        <path
            d="M1111.48 340.27L1110.22 283.7 1143.75 332.92 1191.71 314.63 1157.38 359.37 1179.52 400.52 1136.94 381.33 1085.3 429.2 1104.39 366.9 1052.75 343.94 1111.48 340.27Z"
            fill="#61ccff" opacity="1" stroke-width="4" stroke="none"></path>
        <path
            d="M1100.63 352.28L1099.28 295.62 1132.9 344.84 1180.87 326.64 1146.53 371.29 1168.67 412.53 1126 393.25 1074.36 441.22 1093.46 378.91 1041.91 355.87 1100.63 352.28Z"
            stroke="#000000" stroke-width="4" stroke-linecap="round" stroke-linejoin="round"
            opacity="1" fill="none"></path>
    </g>
    <g>
        <path
            d="M164.01 691.77C273.25 664.88 376.91 555 389.77 465.69 400.11 393.56 323.55 432.79 294.87 539.61 268.61 637.25 277.37 784.04 488.47 778.55 488.47 778.55 410.86 851.73 453.99 924.7 497.12 997.67 637.16 954.34 631.67 907.2 627.56 872.3 498.81 917.43 474.87 1028.36"
            stroke="#000000" stroke-width="4" stroke-linecap="round" stroke-linejoin="round"
            opacity="1" fill="none"></path>
        <path d="M558.7 761.37L631.78 744.7" stroke="#000000" stroke-width="4"
            stroke-linecap="round" stroke-linejoin="round" opacity="1" fill="none"></path>
        <path d="M544.26 797.32L592.55 802.49" stroke="#000000" stroke-width="4"
            stroke-linecap="round" stroke-linejoin="round" opacity="1" fill="none"></path>
    </g>
    <g>
        <path
            d="M1130.56 932.49L1131.54 997.98 1160.11 936.13 1199.51 965.06 1174.22 916.88 1221.96 869.23 1162.15 894.43 1162.42 826.28 1139.08 895.76 1091.17 858.76 1125.51 912.44 1069.25 933.02 1130.56 932.49Z"
            fill="#61ccff" opacity="1" stroke-width="4" stroke="none"></path>
    </g>
    <g>
        <path
            d="M513.25 283.79L513.85 310.75 497.87 287.3 475.01 296.01 491.38 274.69 480.83 255.08 501.12 264.22 525.73 241.41 516.63 271.1 541.24 282.04 513.25 283.79Z"
            fill="#ffa0dc" opacity="1" stroke-width="4" stroke="none"></path>
        <path
            d="M518.42 278.07L519.07 305.07 503.04 281.61 480.18 290.29 496.55 269.01 486 249.35 506.33 258.54 530.94 235.68 521.84 265.38 546.41 276.36 518.42 278.07Z"
            stroke="#000000" stroke-width="4" stroke-linecap="round" stroke-linejoin="round"
            opacity="1" fill="none"></path>
    </g>
    <g>
        <path
            d="M1277.3 617.77C1295.76 617.77 1310.71 602.82 1310.71 584.37 1310.71 565.91 1295.76 550.96 1277.3 550.96 1258.85 550.96 1243.9 565.91 1243.9 584.37 1243.9 602.82 1258.85 617.77 1277.3 617.77Z"
            fill="#ffc930" opacity="1" stroke-width="4" stroke="none"></path>
    </g>
    <g>
        <path
            d="M337.3 861.12C354.78 857.32 365.87 840.06 362.07 822.58 358.26 805.09 341 794 323.52 797.81 306.03 801.62 294.95 818.87 298.75 836.36 302.56 853.84 319.82 864.93 337.3 861.12Z"
            fill="#080808" opacity="0.25" stroke-width="4" stroke="none"></path>
        <path
            d="M323.73 839.14C341.36 835.3 352.55 817.89 348.71 800.26 344.87 782.63 327.46 771.45 309.83 775.28 292.2 779.12 281.01 796.53 284.85 814.16 288.69 831.79 306.1 842.98 323.73 839.14Z"
            fill="#ffc930" opacity="1" stroke-width="4" stroke="none"></path>
    </g>
</svg>